<svg width="140" height="140" viewBox="0 0 140 140" fill="none" xmlns="http://www.w3.org/2000/svg">
<path d="M86.1816 44C86.1816 58.3594 69.6362 70 69.6362 70C69.6362 70 53.0907 58.3594 53.0907 44C53.0907 29.6406 60.4984 18 69.6362 18C78.774 18 86.1816 29.6406 86.1816 44Z" fill="#005611"/>
<path d="M53.0909 96C53.0909 81.6406 69.6362 70 69.6362 70C69.6362 70 86.1819 81.6406 86.1819 96C86.1819 110.359 78.7742 122 69.6364 122C60.4986 122 53.0909 110.359 53.0909 96Z" fill="#005611"/>
<path d="M57.8182 70C57.8182 80.4432 49.3523 88.9091 38.9091 88.9091C28.4659 88.9091 20 80.4432 20 70C20 59.5568 28.4659 51.0909 38.9091 51.0909C49.3523 51.0909 57.8182 59.5568 57.8182 70Z" fill="#005611"/>
<path d="M119.273 70C119.273 80.4432 110.807 88.9091 100.364 88.9091C89.9203 88.9091 81.4544 80.4432 81.4544 70C81.4544 59.5568 89.9203 51.0909 100.364 51.0909C110.807 51.0909 119.273 59.5568 119.273 70Z" fill="#005611"/>
</svg>
