<svg width="469" height="104" viewBox="0 0 469 104" fill="none" xmlns="http://www.w3.org/2000/svg">
<path d="M124.046 72.046C123.942 71.578 123.838 71.032 123.734 70.408C123.63 69.732 123.578 69.056 123.578 68.38L127.244 67.132C127.608 66.196 128.128 64.766 128.804 62.842C129.532 60.866 130.364 58.552 131.3 55.9C132.288 53.248 133.302 50.44 134.342 47.476C135.434 44.512 136.474 41.574 137.462 38.662C138.502 35.698 139.464 32.942 140.348 30.394C141.232 27.794 141.96 25.584 142.532 23.764L142.766 21.346C144.014 21.19 145.366 21.034 146.822 20.878C148.33 20.67 149.812 20.514 151.268 20.41C152.776 20.254 154.128 20.176 155.324 20.176L156.182 21.034C156.806 23.426 157.534 26.052 158.366 28.912C159.25 31.772 160.16 34.736 161.096 37.804C162.084 40.82 163.072 43.81 164.06 46.774C165.048 49.686 165.984 52.442 166.868 55.042C167.804 57.642 168.636 59.956 169.364 61.984C170.092 63.96 170.69 65.52 171.158 66.664L175.058 67.912C175.058 68.536 175.006 69.186 174.902 69.862C174.85 70.486 174.746 71.032 174.59 71.5C171.522 71.5 168.506 71.526 165.542 71.578C162.578 71.682 159.822 71.76 157.274 71.812C154.726 71.916 152.464 71.994 150.488 72.046C150.384 71.578 150.28 71.058 150.176 70.486C150.072 69.914 150.02 69.342 150.02 68.77L156.182 67.21C155.87 65.65 155.428 63.752 154.856 61.516C154.284 59.28 153.634 56.914 152.906 54.418L137.852 55.432C137.384 57.46 136.942 59.462 136.526 61.438C136.11 63.362 135.824 65.182 135.668 66.898L142.298 68.536C142.298 69.056 142.272 69.576 142.22 70.096C142.168 70.616 142.064 71.084 141.908 71.5C138.32 71.5 134.992 71.552 131.924 71.656C128.908 71.812 126.282 71.942 124.046 72.046ZM139.256 49.816H151.658C150.722 46.592 149.76 43.446 148.772 40.378C147.784 37.258 146.848 34.606 145.964 32.422L145.106 31.486C144.586 33.098 143.988 34.918 143.312 36.946C142.688 38.922 142.012 41.002 141.284 43.186C140.608 45.37 139.932 47.58 139.256 49.816Z" fill="black"/>
<path d="M176.238 71.812C176.082 71.344 175.952 70.85 175.848 70.33C175.796 69.81 175.77 69.29 175.77 68.77L180.606 67.054C180.762 65.182 180.866 63.024 180.918 60.58C181.022 58.084 181.074 55.588 181.074 53.092C181.126 50.544 181.152 48.256 181.152 46.228C181.152 43.212 181.1 40.092 180.996 36.868C180.944 33.644 180.84 30.706 180.684 28.054C180.58 25.402 180.424 23.426 180.216 22.126L175.146 20.956C175.146 19.864 175.302 18.85 175.614 17.914L190.122 15.964L192.54 17.836C192.488 18.876 192.41 20.228 192.306 21.892C192.254 23.504 192.176 25.324 192.072 27.352C191.968 29.328 191.89 31.46 191.838 33.748C191.786 35.984 191.734 38.246 191.682 40.534C191.63 42.822 191.604 45.058 191.604 47.242C191.604 48.854 191.604 50.648 191.604 52.624C191.656 54.6 191.708 56.55 191.76 58.474C191.812 60.398 191.864 62.14 191.916 63.7C191.968 65.26 192.02 66.43 192.072 67.21L197.298 68.692C197.298 69.16 197.272 69.628 197.22 70.096C197.168 70.564 197.09 71.032 196.986 71.5C195.634 71.5 194.048 71.5 192.228 71.5C190.46 71.552 188.588 71.578 186.612 71.578C184.688 71.63 182.816 71.656 180.996 71.656C179.176 71.708 177.59 71.76 176.238 71.812Z" fill="black"/>
<path d="M217.055 88.582C216.951 88.114 216.873 87.62 216.821 87.1C216.769 86.58 216.743 86.112 216.743 85.696L223.295 83.902L225.479 59.254L224.309 58.942C223.685 61.074 222.957 63.18 222.125 65.26C221.345 67.34 220.435 69.42 219.395 71.5C217.471 71.864 215.729 72.098 214.169 72.202C212.661 72.358 211.075 72.436 209.411 72.436C208.683 72.176 207.773 71.734 206.681 71.11C205.589 70.486 204.497 69.576 203.405 68.38C202.313 67.132 201.403 65.442 200.675 63.31C199.999 61.178 199.661 58.422 199.661 55.042C199.661 52.026 200.129 49.322 201.065 46.93C202.053 44.486 203.431 42.328 205.199 40.456C206.967 38.532 209.073 36.894 211.517 35.542C212.297 35.334 213.155 35.204 214.091 35.152C215.027 35.048 216.015 34.996 217.055 34.996C218.095 34.944 219.135 34.944 220.175 34.996C221.787 35.1 223.451 35.256 225.167 35.464C226.935 35.672 228.573 35.984 230.081 36.4L231.095 35.62L233.045 33.982L235.463 34.684C235.307 36.036 235.177 37.596 235.073 39.364C234.969 41.132 234.865 43.03 234.761 45.058C234.657 47.034 234.579 49.01 234.527 50.986C234.527 52.962 234.527 54.808 234.527 56.524C234.527 57.824 234.527 59.436 234.527 61.36C234.579 63.232 234.605 65.234 234.605 67.366C234.657 69.446 234.709 71.526 234.761 73.606C234.813 75.686 234.865 77.532 234.917 79.144C234.969 80.756 235.021 82.004 235.073 82.888L240.377 84.994C240.377 85.462 240.325 85.93 240.221 86.398C240.169 86.866 240.065 87.334 239.909 87.802C238.765 87.854 237.413 87.906 235.853 87.958C234.293 88.062 232.655 88.14 230.939 88.192C229.275 88.244 227.585 88.296 225.869 88.348C224.153 88.4 222.541 88.426 221.033 88.426C219.525 88.478 218.199 88.53 217.055 88.582ZM217.133 66.508C217.705 65.572 218.381 64.246 219.161 62.53C219.993 60.814 220.799 58.942 221.579 56.914C222.411 54.886 223.087 53.014 223.607 51.298V41.314C222.671 40.846 221.553 40.43 220.253 40.066C218.953 39.702 217.705 39.442 216.509 39.286C215.833 39.286 215.131 39.39 214.403 39.598C213.675 39.806 212.999 40.118 212.375 40.534C212.115 41.054 211.829 42.38 211.517 44.512C211.257 46.592 211.127 48.906 211.127 51.454C211.127 54.054 211.283 56.576 211.595 59.02C211.907 61.412 212.349 63.362 212.921 64.87C213.493 65.286 214.143 65.624 214.871 65.884C215.599 66.144 216.353 66.352 217.133 66.508Z" fill="black"/>
<path d="M252.987 72.358C252.051 72.046 251.037 71.526 249.945 70.798C248.905 70.018 247.969 69.134 247.137 68.146C246.305 67.106 245.759 66.118 245.499 65.182C245.447 63.57 245.369 61.776 245.265 59.8C245.213 57.772 245.135 55.64 245.031 53.404C244.979 51.168 244.901 48.932 244.797 46.696C244.745 44.408 244.667 42.276 244.563 40.3L240.039 38.896C240.039 38.376 240.065 37.882 240.117 37.414C240.221 36.946 240.351 36.452 240.507 35.932L253.611 35.308L256.107 36.946L255.873 39.286C255.821 41.574 255.769 43.784 255.717 45.916C255.717 48.048 255.717 50.05 255.717 51.922C255.717 53.794 255.717 55.536 255.717 57.148C255.769 58.76 255.847 60.242 255.951 61.594C256.055 62.894 256.185 64.064 256.341 65.104C257.017 65.364 257.693 65.572 258.369 65.728C259.045 65.832 259.643 65.884 260.163 65.884C260.735 65.26 261.359 64.376 262.035 63.232C262.763 62.088 263.491 60.814 264.219 59.41C264.999 57.954 265.805 56.524 266.637 55.12C266.637 53.404 266.611 51.714 266.559 50.05C266.559 48.386 266.533 46.722 266.481 45.058C266.429 43.394 266.377 41.73 266.325 40.066L261.879 38.74C261.879 38.168 261.905 37.648 261.957 37.18C262.009 36.66 262.113 36.14 262.269 35.62L275.919 35.308L278.259 36.946L277.713 39.832C277.557 42.848 277.453 45.942 277.401 49.114C277.349 52.234 277.349 55.302 277.401 58.318C277.505 61.334 277.687 64.194 277.947 66.898L282.627 67.522C282.731 67.938 282.783 68.354 282.783 68.77C282.835 69.186 282.861 69.628 282.861 70.096C280.833 70.46 278.727 70.85 276.543 71.266C274.359 71.63 272.071 71.942 269.679 72.202L267.573 69.94L268.431 61.672L267.651 61.204C266.819 63.128 265.987 64.896 265.155 66.508C264.323 68.068 263.439 69.706 262.503 71.422C260.943 71.682 259.435 71.89 257.979 72.046C256.523 72.254 254.859 72.358 252.987 72.358Z" fill="black"/>
<path d="M301.585 72.436C298.101 72.436 295.137 71.682 292.693 70.174C290.249 68.614 288.377 66.508 287.077 63.856C285.829 61.152 285.205 58.032 285.205 54.496C285.205 51.636 285.543 49.062 286.219 46.774C286.895 44.434 287.805 42.354 288.949 40.534C290.457 39.546 292.147 38.662 294.019 37.882C295.891 37.05 297.815 36.374 299.791 35.854C301.819 35.282 303.769 34.918 305.641 34.762C307.721 34.762 309.671 35.308 311.491 36.4C313.363 37.492 314.897 39.156 316.093 41.392C317.341 43.576 318.043 46.384 318.199 49.816L316.795 54.34C313.987 54.86 310.867 55.25 307.435 55.51C304.003 55.77 300.363 55.926 296.515 55.978C296.775 58.578 297.425 60.736 298.465 62.452C299.505 64.116 300.805 65.468 302.365 66.508C303.769 66.508 305.355 66.326 307.123 65.962C308.891 65.598 310.633 65.156 312.349 64.636C314.117 64.116 315.677 63.622 317.029 63.154L318.355 66.118C317.211 66.95 315.911 67.808 314.455 68.692C313.051 69.576 311.517 70.408 309.853 71.188C308.865 71.448 307.643 71.708 306.187 71.968C304.783 72.28 303.249 72.436 301.585 72.436ZM296.437 52.702C298.621 52.546 300.649 52.364 302.521 52.156C304.445 51.896 306.083 51.61 307.435 51.298C307.435 49.582 307.279 47.944 306.967 46.384C306.655 44.772 306.239 43.342 305.719 42.094C305.199 40.846 304.601 39.91 303.925 39.286C303.197 39.286 302.339 39.338 301.351 39.442C300.415 39.546 299.687 39.728 299.167 39.988C298.439 41.236 297.815 42.978 297.295 45.214C296.775 47.45 296.489 49.946 296.437 52.702Z" fill="black"/>
<path d="M321.729 71.812C321.573 71.344 321.469 70.85 321.417 70.33C321.365 69.81 321.339 69.29 321.339 68.77L326.097 67.054C326.305 65.234 326.435 63.336 326.487 61.36C326.591 59.332 326.643 57.512 326.643 55.9C326.643 54.288 326.591 52.546 326.487 50.674C326.435 48.802 326.357 46.956 326.253 45.136C326.149 43.316 326.019 41.704 325.863 40.3L321.105 39.52C321.001 39.156 320.923 38.74 320.871 38.272C320.871 37.752 320.897 37.284 320.949 36.868C323.081 36.4 325.265 35.984 327.501 35.62C329.789 35.256 332.051 34.944 334.287 34.684L336.237 36.79L335.457 48.022L336.627 48.334C337.407 46.046 338.161 43.888 338.889 41.86C339.669 39.832 340.605 37.752 341.697 35.62C343.413 35.308 344.947 35.074 346.299 34.918C347.651 34.762 349.159 34.684 350.823 34.684C352.331 34.684 353.761 35.23 355.113 36.322C356.517 37.414 357.609 38.558 358.389 39.754C358.285 41.158 358.181 42.562 358.077 43.966C357.973 45.318 357.869 46.67 357.765 48.022L358.857 48.334C359.585 46.202 360.365 44.07 361.197 41.938C362.029 39.806 362.965 37.7 364.005 35.62C365.721 35.308 367.255 35.074 368.607 34.918C369.959 34.762 371.467 34.684 373.131 34.684C374.223 34.684 375.289 34.996 376.329 35.62C377.421 36.244 378.409 37.024 379.293 37.96C380.177 38.844 380.853 39.702 381.321 40.534C381.425 42.77 381.503 45.006 381.555 47.242C381.659 49.478 381.737 51.714 381.789 53.95C381.893 56.186 381.971 58.422 382.023 60.658C382.127 62.842 382.231 65.052 382.335 67.288L386.859 68.692C386.859 69.16 386.833 69.628 386.781 70.096C386.729 70.564 386.651 71.032 386.547 71.5C385.455 71.5 384.077 71.5 382.413 71.5C380.749 71.552 378.981 71.578 377.109 71.578C375.289 71.63 373.521 71.656 371.805 71.656C370.141 71.708 368.737 71.76 367.593 71.812C367.437 71.344 367.307 70.85 367.203 70.33C367.151 69.81 367.125 69.29 367.125 68.77L371.025 67.054C371.077 64.87 371.103 62.79 371.103 60.814C371.103 58.786 371.129 56.81 371.181 54.886C371.181 53.742 371.155 52.598 371.103 51.454C371.103 50.31 371.077 49.166 371.025 48.022C370.973 46.878 370.895 45.812 370.791 44.824C370.739 43.784 370.635 42.848 370.479 42.016C369.803 41.808 369.075 41.626 368.295 41.47C367.567 41.262 366.761 41.106 365.877 41.002C365.357 41.886 364.707 43.134 363.927 44.746C363.199 46.306 362.445 48.048 361.665 49.972C360.937 51.844 360.235 53.768 359.559 55.744L360.027 67.522L363.927 68.692C363.875 69.16 363.823 69.628 363.771 70.096C363.771 70.564 363.719 71.032 363.615 71.5C362.575 71.5 361.249 71.5 359.637 71.5C358.025 71.552 356.309 71.578 354.489 71.578C352.669 71.63 350.927 71.656 349.263 71.656C347.651 71.708 346.325 71.76 345.285 71.812C345.129 71.344 345.025 70.85 344.973 70.33C344.921 69.81 344.895 69.29 344.895 68.77L348.717 67.054C348.769 64.87 348.795 62.79 348.795 60.814C348.795 58.786 348.821 56.81 348.873 54.886C348.873 53.742 348.847 52.598 348.795 51.454C348.795 50.31 348.769 49.166 348.717 48.022C348.665 46.878 348.587 45.812 348.483 44.824C348.431 43.784 348.327 42.848 348.171 42.016C347.547 41.808 346.845 41.626 346.065 41.47C345.285 41.262 344.453 41.106 343.569 41.002C343.049 41.886 342.399 43.134 341.619 44.746C340.891 46.358 340.111 48.152 339.279 50.128C338.499 52.104 337.797 54.08 337.173 56.056L337.563 67.522L341.463 68.692C341.463 69.16 341.437 69.628 341.385 70.096C341.333 70.564 341.255 71.032 341.151 71.5C340.007 71.5 338.577 71.5 336.861 71.5C335.145 71.552 333.351 71.578 331.479 71.578C329.607 71.63 327.813 71.656 326.097 71.656C324.433 71.708 322.977 71.76 321.729 71.812Z" fill="black"/>
<path d="M388.484 71.812C388.328 71.292 388.198 70.798 388.094 70.33C388.042 69.862 388.016 69.342 388.016 68.77L392.852 67.054C392.956 65.91 393.034 64.688 393.086 63.388C393.138 62.088 393.19 60.788 393.242 59.488C393.346 58.188 393.398 57.07 393.398 56.134C393.398 54.47 393.346 52.806 393.242 51.142C393.19 49.478 393.086 47.762 392.93 45.994C392.774 44.226 392.566 42.458 392.306 40.69L388.094 39.598C388.094 39.078 388.12 38.584 388.172 38.116C388.276 37.596 388.406 37.076 388.562 36.556L403.148 34.996L404.864 36.4L404.084 39.13C403.928 40.846 403.824 42.51 403.772 44.122C403.72 45.734 403.694 47.424 403.694 49.192C403.694 51.012 403.72 52.962 403.772 55.042C403.876 57.07 403.98 59.124 404.084 61.204C404.188 63.284 404.318 65.286 404.474 67.21L409.466 68.692C409.466 69.16 409.44 69.628 409.388 70.096C409.388 70.564 409.31 71.032 409.154 71.5C407.854 71.5 406.294 71.5 404.474 71.5C402.654 71.552 400.782 71.578 398.858 71.578C396.934 71.63 395.062 71.656 393.242 71.656C391.422 71.708 389.836 71.76 388.484 71.812ZM393.086 28.756C392.93 27.976 392.774 27.04 392.618 25.948C392.462 24.856 392.358 23.79 392.306 22.75C392.254 21.71 392.228 20.852 392.228 20.176C392.436 20.02 392.748 19.812 393.164 19.552C393.632 19.24 394.1 18.98 394.568 18.772C395.088 18.512 395.452 18.382 395.66 18.382C396.128 18.33 396.804 18.304 397.688 18.304C398.624 18.252 399.638 18.252 400.73 18.304C401.822 18.356 402.862 18.46 403.85 18.616C403.954 19.604 403.98 20.696 403.928 21.892C403.928 23.036 403.85 24.102 403.694 25.09C403.59 26.078 403.382 26.936 403.07 27.664C403.07 27.716 402.888 27.924 402.524 28.288C402.212 28.6 401.874 28.912 401.51 29.224C401.146 29.484 400.938 29.614 400.886 29.614C399.794 29.614 398.52 29.536 397.064 29.38C395.608 29.172 394.282 28.964 393.086 28.756Z" fill="black"/>
<path d="M425.361 72.436C424.217 72.436 422.917 72.358 421.461 72.202C420.057 72.098 418.627 71.916 417.171 71.656C415.767 71.448 414.441 71.188 413.193 70.876L412.413 69.862L412.335 60.814L412.569 60.424L416.859 59.878L420.057 66.352C420.993 66.716 421.903 67.028 422.787 67.288C423.723 67.496 424.711 67.652 425.751 67.756C426.895 67.86 427.987 67.886 429.027 67.834C430.119 67.782 431.081 67.678 431.913 67.522C432.173 66.95 432.329 66.352 432.381 65.728C432.485 65.104 432.511 64.454 432.459 63.778C431.731 62.894 430.795 62.088 429.651 61.36C428.507 60.58 427.233 59.852 425.829 59.176C424.477 58.448 423.099 57.72 421.695 56.992C420.083 56.108 418.549 55.198 417.093 54.262C415.637 53.274 414.467 52.208 413.583 51.064C412.699 49.868 412.257 48.49 412.257 46.93C412.257 45.942 412.387 44.928 412.647 43.888C412.959 42.848 413.349 41.86 413.817 40.924C414.337 39.936 414.909 39.13 415.533 38.506C416.989 37.414 418.757 36.53 420.837 35.854C422.917 35.178 425.205 34.788 427.701 34.684C428.949 34.684 430.171 34.762 431.367 34.918C432.615 35.022 433.785 35.204 434.877 35.464C435.969 35.672 436.983 35.958 437.919 36.322L438.543 37.336L437.763 47.164L433.941 47.398L433.161 46.93L430.743 40.924C429.963 40.508 429.053 40.196 428.013 39.988C427.025 39.728 426.037 39.546 425.049 39.442C424.009 39.39 422.995 39.39 422.007 39.442C421.071 39.494 420.187 39.624 419.355 39.832C419.251 40.248 419.199 40.664 419.199 41.08C419.199 41.444 419.251 41.834 419.355 42.25C419.615 43.186 420.161 44.122 420.993 45.058C421.877 45.994 422.995 46.852 424.347 47.632C426.167 48.568 427.987 49.452 429.807 50.284C431.627 51.064 433.317 51.922 434.877 52.858C436.437 53.742 437.685 54.73 438.621 55.822C439.609 56.914 440.103 58.214 440.103 59.722C440.103 61.178 439.921 62.53 439.557 63.778C439.245 65.026 438.673 66.196 437.841 67.288C436.489 68.9 434.695 70.148 432.459 71.032C430.223 71.864 427.857 72.332 425.361 72.436Z" fill="black"/>
<path d="M453.395 72.436C452.719 71.864 452.017 71.162 451.289 70.33C450.561 69.446 449.859 68.458 449.183 67.366C448.559 66.222 447.987 65.026 447.467 63.778C447.519 61.958 447.571 60.112 447.623 58.24C447.675 56.368 447.701 54.496 447.701 52.624C447.753 50.752 447.779 48.906 447.779 47.086C447.831 45.214 447.857 43.342 447.857 41.47C447.493 41.21 447.051 40.976 446.531 40.768C446.063 40.508 445.569 40.3 445.049 40.144C444.581 39.936 444.087 39.754 443.567 39.598L442.787 38.584L443.177 36.166L448.247 34.762L451.757 27.586H458.933L458.855 35.854L466.967 35.62L468.059 36.4L467.357 40.378C466.993 40.378 466.447 40.378 465.719 40.378C464.991 40.326 464.185 40.3 463.301 40.3C462.469 40.248 461.637 40.222 460.805 40.222C459.973 40.17 459.271 40.144 458.699 40.144C458.647 41.392 458.595 42.718 458.543 44.122C458.543 45.526 458.517 46.852 458.465 48.1C458.465 49.348 458.465 50.44 458.465 51.376C458.465 52.312 458.465 52.962 458.465 53.326C458.465 56.394 458.491 59.124 458.543 61.516C458.647 63.856 458.907 65.806 459.323 67.366C460.311 67.314 461.247 67.236 462.131 67.132C463.067 66.976 463.951 66.794 464.783 66.586C465.667 66.378 466.525 66.144 467.357 65.884L468.527 67.756C467.851 68.432 466.967 69.16 465.875 69.94C464.783 70.72 463.717 71.37 462.677 71.89C462.209 71.942 461.585 71.994 460.805 72.046C460.025 72.15 459.193 72.228 458.309 72.28C457.425 72.332 456.541 72.358 455.657 72.358C454.825 72.41 454.071 72.436 453.395 72.436Z" fill="black"/>
<path d="M66.1816 26C66.1816 40.3594 49.6362 52 49.6362 52C49.6362 52 33.0907 40.3594 33.0907 26C33.0907 11.6406 40.4983 0 49.6362 0C58.774 0 66.1816 11.6406 66.1816 26Z" fill="black"/>
<path d="M33.0909 78C33.0909 63.6406 49.6364 52 49.6364 52C49.6364 52 66.1818 63.6406 66.1818 78C66.1818 92.3594 58.7742 104 49.6364 104C40.4986 104 33.0909 92.3594 33.0909 78Z" fill="black"/>
<circle cx="18.9091" cy="52" r="18.9091" fill="black"/>
<circle cx="80.3635" cy="52" r="18.9091" fill="black"/>
</svg>
